# xmcd CD database file
#
# Track frame offsets:
#	150
#	14218
#	36217
#	50056
#	63302
#	75400
#	91032
#	105082
#	118604
#	134071
#	147097
#	167097
#
# Disc length: 2450 seconds
#
# Revision: 1
# Processed by: cddbd v1.5.2PL0 Copyright (c) Steve Scherf et al.
# Submitted via: CDex 1.72
#
DISCID=9c09900c
DTITLE=Reid, Glen  [CDN-99-Wildcats Howlin'-Cty)  Burk's Falls, ON - Wildcats Howlin'
DYEAR=1999
DGENRE=Country
TTITLE0=The L&N Don't Stop Here Anymore
TTITLE1=Wildcat's Howlin'
TTITLE2=Too Much Talk
TTITLE3=Waitin' For the Lights
TTITLE4=Seein' the Blue
TTITLE5=I'm Just Dreaming
TTITLE6=All I Have To Give
TTITLE7=Circle of Song
TTITLE8=Crimson and Gold
TTITLE9=First Unto This Country
TTITLE10=Try Those Wings
TTITLE11=Great North Wind
EXTD=YEAR: 1999
EXTT0=
EXTT1=
EXTT2=
EXTT3=
EXTT4=
EXTT5=
EXTT6=
EXTT7=
EXTT8=
EXTT9=
EXTT10=
EXTT11=
PLAYORDER=
